<svg xmlns="http://www.w3.org/2000/svg" width="2100" height="2100" viewBox="0 0 2100 2100" version="1.1"><path d="M 2082.500 81.048 C 2074.800 81.458, 2061.543 82.098, 2053.039 82.472 C 2044.535 82.846, 2032.385 84.068, 2026.039 85.188 C 2017.066 86.772, 2009.052 87.299, 1990 87.557 C 1965.429 87.890, 1960.066 88.205, 1948 90.021 C 1944.425 90.559, 1936.550 91.704, 1930.500 92.566 C 1913.069 95.050, 1883.194 101.504, 1847.500 110.497 C 1805.105 121.179, 1786.240 124.925, 1726.500 134.527 C 1717.700 135.942, 1708.925 137.494, 1707 137.976 C 1705.075 138.459, 1701.925 139.083, 1700 139.363 C 1673.801 143.176, 1611.367 165.444, 1570.500 185.552 C 1543.345 198.913, 1529.470 206.978, 1501.500 225.659 C 1471.440 245.735, 1470.553 246.336, 1470 246.973 C 1469.725 247.290, 1465.117 250.862, 1459.759 254.911 C 1449.920 262.347, 1447.353 264.687, 1448.154 265.488 C 1448.396 265.729, 1456.223 264.413, 1465.547 262.562 C 1474.871 260.711, 1485.425 258.928, 1489 258.599 C 1506.282 257.008, 1519.722 256.057, 1532.500 255.523 C 1540.200 255.201, 1548.750 254.732, 1551.500 254.481 C 1554.250 254.229, 1570.225 253.549, 1587 252.968 C 1614.774 252.006, 1634.974 250.840, 1674.500 247.918 C 1692.831 246.563, 1725.419 246.597, 1744.380 247.990 C 1772.205 250.036, 1792.276 250.741, 1823 250.752 C 1839.775 250.758, 1856.650 251.074, 1860.500 251.453 C 1901.315 255.478, 1937.320 265.016, 1986 284.698 C 2018.120 297.684, 2041.352 312.874, 2080.825 346.695 C 2088.896 353.611, 2096.512 360.187, 2097.750 361.309 L 2100 363.349 2100 221.674 C 2100 87.355, 2099.909 80.008, 2098.250 80.152 C 2097.287 80.236, 2090.200 80.639, 2082.500 81.048 M 998.750 319.735 C 996.138 319.941, 994 320.532, 994 321.047 C 994 321.563, 997.487 326.162, 1001.750 331.268 C 1015.325 347.527, 1016.880 349.633, 1022.534 359.427 C 1032.205 376.177, 1037.219 388.779, 1038.960 400.710 C 1040.316 409.997, 1041.954 442.250, 1041.413 449 C 1040.295 462.951, 1038.159 467.964, 1026.267 484.532 C 1012.450 503.785, 999.697 526.685, 991.479 547 C 979.276 577.169, 970.043 593.239, 962 598.305 C 958.791 600.327, 949.495 601.610, 948.596 600.156 C 948.233 599.568, 947.286 599.337, 946.493 599.641 C 944.746 600.311, 923.665 588.392, 916 582.401 C 912.975 580.037, 908.025 575.796, 905 572.977 C 896.297 564.867, 881.305 558.448, 862.500 554.781 C 859.200 554.137, 856.275 553.333, 856 552.994 C 854.769 551.475, 841.811 546.889, 835 545.562 C 814.879 541.641, 809.715 541.545, 670.500 542.515 C 607.067 542.957, 597.568 543.277, 581.374 545.516 C 575.805 546.286, 568.830 547.170, 565.874 547.479 C 549.461 549.199, 530.081 552.634, 528.550 554.094 C 528.027 554.592, 527.802 555.017, 528.050 555.038 C 538.563 555.920, 559.098 559.533, 576 563.473 C 586.175 565.846, 601.250 568.976, 609.500 570.430 C 629.396 573.937, 656.280 579.450, 667.810 582.388 C 674.430 584.075, 680.304 584.811, 688.141 584.936 C 694.202 585.032, 700.138 585.483, 701.331 585.938 C 704.388 587.103, 709.095 592.038, 708.330 593.275 C 707.978 593.844, 708.163 594.017, 708.741 593.660 C 709.318 593.303, 710.030 593.636, 710.323 594.399 C 710.916 595.945, 718.858 599.901, 726.500 602.457 C 747.823 609.590, 770.798 623.179, 782.287 635.454 C 795.386 649.449, 800.277 663.709, 796.882 678 C 796.294 680.475, 795.709 682.950, 795.583 683.500 C 795.457 684.050, 794.599 686.242, 793.677 688.372 C 792.755 690.502, 792 692.473, 792 692.753 C 792 694.091, 780.979 712.497, 775.386 720.500 C 765.332 734.885, 757.911 741.696, 746.407 747.096 C 742.608 748.880, 737.925 751.319, 736 752.517 C 734.075 753.715, 729.350 755.261, 725.500 755.953 C 712.978 758.204, 704.541 760.026, 702.500 760.920 C 701.400 761.402, 698.925 762.482, 697 763.321 C 695.075 764.160, 690.011 766.456, 685.746 768.423 C 681.481 770.390, 677.759 772, 677.475 772 C 677.190 772, 667.180 776.441, 655.229 781.868 C 630.916 792.910, 611.596 799.592, 592.959 803.404 C 569.039 808.297, 558.322 809, 507.614 809 C 462.794 809, 460.401 808.906, 453.608 806.888 C 449.699 805.726, 444.700 803.869, 442.500 802.761 C 434.526 798.747, 417.503 786.978, 398 771.995 C 387.396 763.849, 371.056 752, 370.428 752 C 369.190 752, 370.780 773.142, 372.522 779.858 C 377.303 798.290, 384.211 811.947, 398.504 831.219 C 406.933 842.585, 407.312 843.378, 407.288 849.563 C 407.267 854.883, 404.831 859.832, 399.339 865.716 C 393.014 872.493, 391.161 875.094, 383.820 887.500 C 376.979 899.062, 371.997 908.504, 367.460 918.500 C 365.963 921.800, 363.077 928.100, 361.046 932.500 C 356.269 942.855, 355.349 945.396, 354.064 951.799 C 352.710 958.545, 352.712 1007.010, 354.067 1013 C 355.786 1020.601, 363.100 1034.101, 369.966 1042.345 C 373.560 1046.659, 378.306 1053.184, 380.513 1056.845 C 386.055 1066.036, 387.229 1065.984, 394.201 1056.247 C 400.113 1047.989, 411.450 1034.984, 412.740 1034.980 C 413.158 1034.979, 413.506 1034.348, 413.513 1033.579 C 413.531 1031.721, 416.960 1028, 418.655 1028 C 419.395 1028, 420 1027.550, 420 1027 C 420 1026.450, 420.900 1026, 422 1026 C 423.100 1026, 424 1025.523, 424 1024.941 C 424 1024.359, 424.450 1024.160, 425 1024.500 C 425.550 1024.840, 426 1024.672, 426 1024.126 C 426 1023.581, 427.013 1022.826, 428.250 1022.449 C 429.488 1022.072, 431.214 1021.139, 432.086 1020.376 C 434.276 1018.459, 445.365 1013.147, 452 1010.837 C 462.472 1007.191, 466.554 1006.141, 478.500 1004.021 C 485.100 1002.850, 491.400 1001.627, 492.500 1001.303 C 493.600 1000.979, 537.025 1000.365, 589 999.937 C 700.600 999.020, 708.938 998.491, 718.360 991.725 C 720.064 990.501, 722.194 989.050, 723.092 988.500 C 737.836 979.476, 746.189 975.826, 759.942 972.403 C 769.547 970.012, 777.461 969.320, 778.371 970.791 C 778.640 971.226, 780.579 971.690, 782.680 971.822 C 790.051 972.285, 791.664 973.339, 796.347 980.757 C 799.535 985.807, 799.431 993.182, 796.105 997.852 C 790.748 1005.375, 749.924 1022.199, 731.221 1024.590 C 727.977 1025.005, 724.279 1026.367, 721.628 1028.123 C 712.906 1033.900, 691.991 1053.174, 673 1072.933 C 630.626 1117.024, 621.294 1124.222, 581.730 1143.332 C 573.534 1147.291, 569.057 1149.995, 569.230 1150.883 C 569.378 1151.644, 570.850 1152.995, 572.500 1153.885 C 574.150 1154.775, 577.075 1156.476, 579 1157.666 C 594.803 1167.429, 631.227 1181.626, 644 1183 C 648.125 1183.444, 685.025 1183.738, 726 1183.653 L 800.500 1183.499 810.500 1180.693 C 816 1179.149, 823.425 1176.848, 827 1175.581 C 836.294 1172.285, 866.162 1159.845, 874.972 1155.600 C 882.148 1152.143, 891 1150.647, 891 1152.892 C 891 1153.382, 892.237 1154.093, 893.750 1154.471 C 898.129 1155.565, 909.928 1168.616, 914.728 1177.675 C 923.616 1194.448, 928.649 1224.055, 930.422 1270 C 931.693 1302.896, 932.188 1314.757, 932.489 1319.500 C 932.664 1322.250, 933.138 1336.650, 933.543 1351.500 C 934.384 1382.351, 933.676 1392.342, 928.399 1424 C 924.803 1445.574, 922.983 1453.716, 913.124 1492.329 C 909.014 1508.426, 906.696 1519.783, 905.980 1527.329 C 903.821 1550.092, 896.663 1578.420, 887.493 1600.500 C 878.313 1622.603, 873.067 1631.870, 862.863 1644 C 855.284 1653.010, 839.556 1675.421, 831.984 1688 C 826.631 1696.892, 814.511 1715.137, 811.721 1718.500 C 811.265 1719.050, 808.104 1723.388, 804.696 1728.141 C 793.048 1744.385, 779.972 1759.850, 773.593 1764.926 C 766.273 1770.751, 752.142 1779.831, 743.750 1784.102 C 737.743 1787.160, 736.428 1788.999, 740.250 1789.001 C 743.170 1789.002, 754.823 1794.511, 757.847 1797.320 C 760.276 1799.575, 764.533 1807, 763.398 1807 C 763.044 1807, 763.315 1807.675, 764 1808.500 C 765.838 1810.714, 765.578 1826.260, 763.577 1833.831 C 762.656 1837.313, 760.804 1842.648, 759.459 1845.688 C 758.115 1848.728, 757.271 1851.629, 757.583 1852.134 C 757.908 1852.660, 762.934 1852.811, 769.325 1852.486 C 806.479 1850.603, 809.883 1851.063, 817.973 1859.068 C 822.146 1863.197, 822.882 1864.574, 823.955 1870.259 C 824.627 1873.824, 825.025 1880.062, 824.839 1884.121 L 824.500 1891.500 828.642 1891.244 C 834.963 1890.853, 839.529 1888.485, 846.547 1881.957 C 850.068 1878.680, 853.298 1875.989, 853.725 1875.976 C 854.151 1875.962, 856.826 1875.690, 859.669 1875.371 C 863.657 1874.924, 865.569 1875.215, 868.038 1876.646 C 871.875 1878.870, 877.949 1884.717, 877.200 1885.467 C 876.907 1885.760, 877.137 1886, 877.712 1886 C 878.861 1886, 881.429 1895.516, 882.503 1903.750 C 882.896 1906.760, 883.696 1909, 884.378 1909 C 885.786 1909, 893.078 1900.496, 900.670 1890 C 916.272 1868.430, 921.355 1861.165, 925.070 1855.129 C 935.180 1838.702, 946.675 1818.535, 952.077 1807.748 C 955.314 1801.285, 960.073 1792.285, 962.654 1787.748 C 966.776 1780.499, 971.943 1770.002, 978.775 1754.997 C 989.451 1731.547, 1001.812 1706.548, 1005.186 1701.582 C 1012.171 1691.303, 1020.394 1681.958, 1031.970 1671.146 C 1043.061 1660.787, 1054.518 1646.763, 1062.163 1634.189 C 1064.400 1630.510, 1069.270 1623.225, 1072.985 1618 C 1080.011 1608.118, 1089.449 1592.824, 1094.892 1582.500 C 1096.631 1579.200, 1099.212 1574.475, 1100.627 1572 C 1106.768 1561.256, 1122.933 1528.685, 1125.249 1522.386 C 1128.021 1514.848, 1135.742 1490.583, 1138.894 1479.500 C 1141.929 1468.831, 1143.731 1458.289, 1145.986 1438 C 1150.999 1392.896, 1152.397 1384.996, 1156.020 1381.291 C 1158.766 1378.482, 1166 1375.355, 1166 1376.977 C 1166 1377.412, 1167.420 1377.656, 1169.155 1377.519 C 1172.694 1377.241, 1177.984 1379.808, 1177.994 1381.809 C 1177.997 1382.529, 1178.398 1382.872, 1178.884 1382.572 C 1179.370 1382.271, 1180.324 1383.369, 1181.004 1385.010 C 1182.323 1388.195, 1182.108 1393.055, 1179.936 1409.083 L 1178.638 1418.665 1185.438 1437.583 C 1189.178 1447.987, 1194.037 1461, 1196.237 1466.500 C 1202.463 1482.069, 1204.021 1486.158, 1205.573 1491 C 1207.198 1496.074, 1209.705 1506.367, 1210.503 1511.252 C 1210.795 1513.039, 1211.244 1515.625, 1211.500 1517 C 1214.533 1533.289, 1216.539 1555.305, 1217.466 1582.500 C 1217.785 1591.850, 1218.268 1603.100, 1218.540 1607.500 C 1218.812 1611.900, 1219.476 1628.325, 1220.015 1644 C 1221.115 1675.959, 1221.851 1695.194, 1222.482 1708.500 C 1223.831 1736.934, 1224.500 1759.815, 1224.500 1777.500 L 1224.500 1797.500 1221.404 1804 C 1217.625 1811.934, 1203.640 1827.067, 1191.072 1836.824 C 1186.357 1840.484, 1181.627 1844.271, 1180.560 1845.240 C 1179.493 1846.209, 1177.134 1848.014, 1175.317 1849.251 C 1173.500 1850.488, 1172.011 1851.779, 1172.007 1852.119 C 1171.997 1853.016, 1178.633 1853.975, 1185 1853.997 C 1198.377 1854.042, 1210.632 1857.959, 1215.836 1863.854 C 1225.916 1875.274, 1224.433 1891.728, 1210.549 1922.500 C 1206.200 1932.138, 1201.580 1948.623, 1202.984 1949.490 C 1204.308 1950.309, 1214.245 1946.732, 1226.922 1940.873 C 1241.717 1934.036, 1250.330 1932.327, 1259.388 1934.433 C 1269.401 1936.760, 1275.466 1943.018, 1284.719 1960.566 C 1287.349 1965.553, 1290.513 1970.953, 1291.750 1972.566 C 1293.968 1975.458, 1294.023 1975.471, 1295.577 1973.500 C 1296.444 1972.400, 1300.718 1964.300, 1305.074 1955.500 C 1313.970 1937.533, 1318.289 1931.256, 1325.524 1925.784 C 1338.115 1916.262, 1351.509 1917.008, 1370.066 1928.265 C 1383.923 1936.672, 1401.814 1945.733, 1403.049 1944.970 C 1403.977 1944.396, 1404.094 1937.608, 1403.552 1915.861 C 1402.764 1884.270, 1402.888 1883.159, 1408.964 1867.500 C 1425.008 1826.147, 1437.759 1774.668, 1445.995 1718 C 1447.154 1710.025, 1448.723 1700.800, 1449.481 1697.500 C 1455.496 1671.318, 1463.660 1628.446, 1465.563 1613.043 C 1466.342 1606.742, 1467.642 1597.067, 1468.451 1591.543 C 1469.709 1582.965, 1471.291 1566.151, 1473.492 1538 C 1474.090 1530.344, 1475.652 1497.379, 1476.525 1474 C 1476.870 1464.754, 1476.624 1449.147, 1475.965 1438.500 C 1473.822 1403.856, 1473.799 1402.899, 1475.045 1399.892 C 1475.704 1398.301, 1476.553 1397, 1476.933 1397 C 1477.312 1397, 1478.495 1396.213, 1479.561 1395.250 C 1482.710 1392.407, 1488.280 1390.276, 1491.500 1390.683 C 1495.861 1391.233, 1497.208 1391.855, 1496.504 1392.993 C 1496.162 1393.547, 1496.606 1394, 1497.491 1394 C 1498.375 1394, 1500.539 1394.749, 1502.300 1395.663 C 1504.060 1396.578, 1510 1398.153, 1515.500 1399.162 C 1521 1400.171, 1526.850 1401.246, 1528.500 1401.552 C 1592.928 1413.487, 1601.095 1414.730, 1621 1415.633 C 1630.075 1416.044, 1638.400 1416.362, 1639.500 1416.339 C 1651.820 1416.082, 1677.627 1414.730, 1678.312 1414.307 C 1678.817 1413.995, 1678.873 1404.492, 1678.442 1392.131 C 1676.703 1342.193, 1677.598 1323.466, 1683.075 1295.166 C 1686.729 1276.288, 1696.118 1252.138, 1704.016 1241.302 C 1707.176 1236.968, 1719.616 1233.628, 1721.983 1236.479 C 1722.677 1237.316, 1723.817 1238, 1724.515 1238 C 1725.577 1238, 1726.606 1239.379, 1727.497 1242 C 1727.591 1242.275, 1728.169 1243.706, 1728.782 1245.179 C 1730.246 1248.699, 1729.629 1257.082, 1727.643 1260.660 C 1723.036 1268.959, 1717.022 1284.364, 1715.019 1293 C 1714.005 1297.367, 1711.228 1311.486, 1710.592 1315.500 C 1708.065 1331.461, 1707.488 1379.841, 1709.513 1406 C 1709.747 1409.025, 1710.188 1419.150, 1710.492 1428.500 C 1711.911 1472.079, 1713.344 1480.113, 1724.314 1506 C 1726.295 1510.675, 1730.433 1521.925, 1733.510 1531 C 1738.669 1546.217, 1749.136 1569.400, 1756.304 1581.487 C 1757.939 1584.244, 1762.628 1593.025, 1766.722 1601 C 1770.817 1608.975, 1776.025 1618.200, 1778.295 1621.500 C 1780.565 1624.800, 1784.080 1629.975, 1786.106 1633 C 1790.349 1639.335, 1803.333 1662.046, 1810.778 1676.156 C 1813.580 1681.466, 1819.213 1691.366, 1823.295 1698.156 C 1829.689 1708.790, 1837 1722.943, 1837 1724.686 C 1837 1724.986, 1842.109 1735.642, 1848.353 1748.366 C 1854.597 1761.090, 1860.647 1774.200, 1861.798 1777.500 C 1866.890 1792.107, 1869.968 1820.367, 1869.990 1852.712 C 1869.999 1864.802, 1869.679 1867.789, 1867.853 1872.712 C 1863.389 1884.744, 1852.131 1897.086, 1837.195 1906.326 C 1832.149 1909.446, 1827.784 1912, 1827.494 1912 C 1827.203 1912, 1823.711 1913.973, 1819.733 1916.385 C 1815.755 1918.797, 1809.688 1922.023, 1806.250 1923.554 C 1802.813 1925.085, 1800 1926.676, 1800 1927.088 C 1800 1928.031, 1807.703 1930.516, 1815.236 1932.003 C 1818.390 1932.626, 1827.857 1933.253, 1836.274 1933.396 C 1851.538 1933.656, 1851.593 1933.666, 1857.943 1937.050 C 1861.723 1939.065, 1865.408 1941.961, 1867.016 1944.181 C 1870.186 1948.557, 1872.255 1957.743, 1871.494 1964.065 C 1870.848 1969.435, 1867.566 1979.970, 1864.929 1985.139 C 1861.664 1991.539, 1862.028 1992, 1870.340 1992 C 1878.862 1992, 1890.036 1989.373, 1899.865 1985.059 C 1905.677 1982.508, 1907.773 1982.082, 1912.979 1982.389 C 1917.298 1982.643, 1920.046 1983.397, 1922.047 1984.877 C 1923.627 1986.045, 1925.397 1987, 1925.981 1987 C 1926.565 1987, 1927.555 1988.125, 1928.182 1989.500 C 1928.808 1990.875, 1929.638 1992, 1930.025 1992 C 1931.232 1992, 1933.847 2000.233, 1934.556 2006.263 C 1934.929 2009.433, 1935.534 2012.212, 1935.900 2012.438 C 1936.266 2012.665, 1939.774 2008.046, 1943.694 2002.175 C 1953.845 1986.973, 1959.748 1980.742, 1967.712 1976.821 C 1972.937 1974.249, 1975.519 1973.578, 1979.919 1973.651 C 1990.820 1973.830, 1997.888 1978.934, 2014.955 1998.948 C 2020.608 2005.576, 2025.696 2011, 2026.261 2011 C 2026.948 2011, 2027.075 2006.262, 2026.644 1996.750 C 2026.289 1988.912, 2025.747 1974.400, 2025.440 1964.500 C 2025.132 1954.600, 2024.710 1944.025, 2024.502 1941 C 2024.293 1937.975, 2023.803 1923.327, 2023.414 1908.450 C 2022.493 1873.304, 2022.248 1874.404, 2035.731 1853 C 2045.184 1837.993, 2055.327 1810.357, 2069.471 1761.065 C 2071.296 1754.704, 2073.787 1744.325, 2075.005 1738 C 2078.164 1721.597, 2083.402 1704.078, 2088.607 1692.500 C 2090.633 1687.994, 2096.772 1667.217, 2098.489 1659.052 C 2099.822 1652.714, 2100 1605.149, 2100 1254.403 C 2100 937.310, 2099.747 856.856, 2098.750 856.537 C 2098.063 856.317, 2089.802 854.078, 2080.393 851.561 C 2057.562 845.455, 2052.988 843.892, 2036.049 836.415 C 2018.722 828.767, 2014.649 826.338, 1992 810.154 C 1975.401 798.293, 1968.357 792.787, 1957.955 783.540 C 1952.879 779.027, 1951.285 777.676, 1938.481 767.038 C 1933.541 762.933, 1927.250 757.474, 1924.500 754.906 C 1921.750 752.338, 1917.250 748.327, 1914.500 745.993 C 1911.750 743.658, 1908.796 741.017, 1907.935 740.124 C 1907.074 739.231, 1902.605 735.125, 1898.005 731 C 1877.306 712.441, 1870.787 706.171, 1856.629 691.206 C 1842.002 675.746, 1817.685 656.198, 1805.403 650.027 C 1799.843 647.232, 1789.236 641.623, 1775 633.948 C 1773.075 632.910, 1762.050 627.561, 1750.500 622.061 C 1738.950 616.561, 1727.250 610.876, 1724.500 609.427 C 1691.048 591.807, 1678.817 586.764, 1656 581.182 C 1632.393 575.408, 1628.788 575.104, 1599 576.376 C 1507.370 580.288, 1502.783 580.572, 1484.199 583.480 C 1463.293 586.752, 1451.481 589.902, 1416.038 601.657 C 1400.962 606.658, 1392.507 608.982, 1390.500 608.678 C 1386.127 608.016, 1383.369 607.266, 1381.315 606.182 C 1375.739 603.241, 1370.304 602.178, 1365.781 603.142 C 1363.242 603.684, 1360.934 604.729, 1360.652 605.465 C 1360.370 606.200, 1360.642 613.979, 1361.258 622.749 C 1362.231 636.622, 1362.156 640.050, 1360.677 649.098 C 1359.743 654.819, 1358.098 662.398, 1357.023 665.939 C 1355.542 670.820, 1355.344 672.709, 1356.206 673.748 C 1356.831 674.501, 1363.228 678.980, 1370.421 683.702 C 1377.615 688.423, 1386.598 694.347, 1390.385 696.867 C 1403.354 705.495, 1417.513 720.916, 1427.729 737.539 C 1437.528 753.484, 1447.964 776.093, 1450.098 786 C 1453.779 803.095, 1455.857 835.429, 1454.038 847.322 C 1451.995 860.678, 1446.634 872.944, 1437.620 884.890 C 1433.661 890.136, 1420.907 901.115, 1416.269 903.268 C 1412.260 905.129, 1412.293 904.556, 1413.484 952.190 C 1414.311 985.266, 1413.876 989.375, 1408.432 1000 C 1398.806 1018.787, 1378.097 1036.233, 1348.500 1050.492 C 1322.621 1062.960, 1314.040 1064.920, 1277.500 1066.714 C 1245.073 1068.307, 1237.781 1067.259, 1219 1058.310 C 1206.774 1052.484, 1192.139 1046.917, 1175 1041.573 C 1169.225 1039.773, 1162.025 1037.279, 1159 1036.031 C 1153.748 1033.866, 1152.689 1033.792, 1135.500 1034.393 C 1125.600 1034.739, 1116.375 1035.205, 1115 1035.429 C 1113.625 1035.652, 1106.425 1036.112, 1099 1036.452 C 1091.575 1036.791, 1082.350 1037.274, 1078.500 1037.524 C 1074.650 1037.775, 1062.950 1038.431, 1052.500 1038.982 C 1009.007 1041.275, 1008.724 1041.311, 1001.500 1045.567 C 996.562 1048.476, 989.177 1055.333, 985.957 1060 C 977.896 1071.680, 947.556 1106.060, 925.365 1128.660 C 912.897 1141.357, 908.855 1144.892, 906.499 1145.160 C 903.117 1145.543, 895 1143.229, 895 1141.881 C 895 1141.397, 894.365 1141, 893.589 1141 C 891.198 1141, 888.027 1133.044, 888.478 1128.180 C 888.938 1123.227, 893.260 1117.826, 910.587 1100.555 C 922.141 1089.038, 944.145 1064.054, 958.195 1046.500 C 963.478 1039.900, 969.983 1032.447, 972.650 1029.937 C 978.231 1024.686, 984.437 1020, 985.811 1020 C 986.330 1020, 987.285 1019.362, 987.932 1018.581 C 989.563 1016.617, 1002.447 1012.210, 1008.500 1011.546 C 1014.826 1010.852, 1023.415 1010.258, 1038 1009.504 C 1044.325 1009.177, 1051.525 1008.724, 1054 1008.498 C 1056.475 1008.271, 1064.575 1007.816, 1072 1007.486 C 1079.425 1007.156, 1087.300 1006.716, 1089.500 1006.509 C 1091.700 1006.303, 1100.700 1005.831, 1109.500 1005.460 C 1118.300 1005.090, 1125.781 1004.618, 1126.125 1004.411 C 1127.196 1003.769, 1156.337 1003.836, 1159.436 1004.489 C 1161.051 1004.828, 1166.451 1006.597, 1171.436 1008.420 C 1176.421 1010.242, 1186.995 1013.857, 1194.934 1016.453 C 1202.873 1019.049, 1213.223 1022.885, 1217.934 1024.977 C 1222.645 1027.069, 1230.201 1030.432, 1234.726 1032.449 C 1247.027 1037.934, 1251.721 1038.193, 1290.500 1035.520 C 1309.142 1034.236, 1317.925 1031.885, 1335.500 1023.478 C 1345.168 1018.853, 1353.727 1013.463, 1364.033 1005.509 C 1373.071 998.534, 1377.544 993.503, 1381.165 986.237 L 1384.287 979.975 1383.608 964.737 C 1383.234 956.357, 1382.725 943.425, 1382.475 936 C 1381.884 918.364, 1381.252 914.158, 1378.654 910.540 C 1377.469 908.890, 1375.994 905.874, 1375.376 903.838 C 1374.220 900.032, 1374.602 895, 1376.047 895 C 1376.495 895, 1377.005 893.990, 1377.180 892.756 C 1377.392 891.269, 1379.253 889.497, 1382.694 887.506 C 1385.551 885.853, 1391.800 882.252, 1396.583 879.504 C 1407.669 873.134, 1413.158 868.272, 1417.360 861.104 C 1424.288 849.282, 1425.599 840.756, 1423.911 818.500 C 1422.136 795.104, 1420.061 787.840, 1409.157 766.853 C 1402.201 753.462, 1402.339 753.686, 1394.312 742.910 C 1390.359 737.603, 1384.734 731.255, 1381.812 728.802 C 1375.989 723.915, 1374.853 723.127, 1351.404 707.702 C 1342.551 701.879, 1333.829 695.430, 1332.022 693.373 C 1324.103 684.353, 1323.174 675.827, 1328.080 657.196 C 1330.648 647.442, 1331.164 643.591, 1331.185 634 C 1331.252 604.319, 1328.228 594.971, 1312.100 575 C 1302.399 562.988, 1287.052 551.025, 1271 542.964 C 1263.251 539.072, 1247.290 533.523, 1241 532.534 C 1231.439 531.030, 1220.337 527.768, 1216.714 525.399 C 1204.720 517.558, 1202.991 513.413, 1201.096 487.957 C 1199.754 469.939, 1196.493 459.248, 1186.313 439.500 C 1171.971 411.678, 1164.734 402.518, 1134.939 374.467 C 1119.372 359.811, 1099.936 347.312, 1082 340.422 C 1077.875 338.837, 1074.350 337.194, 1074.167 336.770 C 1073.983 336.347, 1073.338 336, 1072.732 336 C 1072.127 336, 1069.802 335.145, 1067.566 334.099 C 1055.941 328.664, 1042.157 323.231, 1038.268 322.552 C 1019.541 319.282, 1011.637 318.719, 998.750 319.735 M 2016 787.915 C 2016 789.758, 2025.034 797.241, 2027.738 797.638 C 2029.766 797.935, 2029.295 797.399, 2023.750 793.094 C 2020.862 790.852, 2017.938 788.546, 2017.250 787.970 C 2016.458 787.305, 2016 787.286, 2016 787.915 M 786.589 808.055 C 782.144 809.170, 776.796 812.213, 772.716 815.950 C 761.109 826.582, 765.430 848.590, 781.010 858.186 C 784.974 860.627, 793.916 862.152, 799.993 861.421 C 811.556 860.032, 819.582 854.349, 823.113 845.051 C 828.581 830.654, 823.144 817.215, 808.914 809.956 C 804.086 807.493, 792.697 806.523, 786.589 808.055 M 368.672 846.114 C 368.469 846.876, 367.824 848.962, 367.238 850.750 C 366.017 854.480, 367.591 855.279, 370.193 852.250 C 372.869 849.134, 372.986 848.297, 370.997 846.498 C 369.439 845.088, 368.967 845.010, 368.672 846.114 M 659.750 1031.716 C 658.223 1031.948, 657 1032.770, 657 1033.566 C 657 1034.355, 657.563 1034.888, 658.250 1034.750 C 658.948 1034.610, 659.370 1035.272, 659.206 1036.250 C 658.720 1039.145, 662.311 1038.314, 666.583 1034.542 L 670.500 1031.083 666.500 1031.191 C 664.300 1031.251, 661.263 1031.487, 659.750 1031.716 M 147.987 1041.328 C 149.064 1044.533, 152.092 1051.226, 154.715 1056.200 C 158.768 1063.888, 161.094 1066.788, 170.228 1075.540 C 177.078 1082.104, 186.866 1089.914, 197.236 1097.090 C 206.181 1103.280, 216.471 1110.708, 220.102 1113.596 C 229.626 1121.171, 240.417 1128.019, 252.861 1134.385 C 270.422 1143.367, 287.363 1147.210, 306.044 1146.449 C 318.471 1145.942, 335 1141.981, 335 1139.510 C 335 1138.432, 334.246 1138.371, 331.250 1139.206 C 328.149 1140.070, 314.775 1140.599, 306.500 1140.186 C 305.400 1140.131, 300.675 1140.037, 296 1139.978 C 291.325 1139.918, 285.700 1139.431, 283.500 1138.895 C 281.300 1138.360, 278.150 1137.669, 276.500 1137.362 C 274.850 1137.054, 272.712 1136.381, 271.750 1135.866 C 270.788 1135.351, 270 1135.226, 270 1135.587 C 270 1135.949, 269.396 1135.744, 268.658 1135.131 C 267.920 1134.519, 267.053 1134.280, 266.732 1134.602 C 266.041 1135.292, 250.242 1128.672, 244.500 1125.287 C 242.300 1123.989, 238.950 1122.227, 237.056 1121.370 C 232.595 1119.351, 215 1107.835, 215 1106.934 C 215 1106.554, 213.650 1105.683, 212 1105 C 210.350 1104.317, 209 1103.362, 209 1102.879 C 209 1102.395, 208.551 1102, 208.002 1102 C 206.748 1102, 196.928 1095.174, 195.250 1093.136 C 194.563 1092.301, 193.993 1092.041, 193.985 1092.559 C 193.976 1093.091, 193.650 1093.063, 193.235 1092.494 C 192.831 1091.941, 190.700 1090.167, 188.500 1088.552 C 181.704 1083.562, 164.795 1065.745, 166.093 1064.942 C 166.865 1064.465, 166.538 1063.988, 165.134 1063.543 C 163.963 1063.171, 162.725 1061.751, 162.382 1060.387 C 162.040 1059.023, 161.533 1058.134, 161.255 1058.412 C 160.977 1058.689, 159.794 1057.174, 158.625 1055.045 C 153.565 1045.825, 150.352 1040.579, 148.264 1038.126 L 146.029 1035.500 147.987 1041.328 M 1675.644 1466.764 C 1670.220 1475.693, 1650.917 1517.384, 1646.829 1529 C 1643.200 1539.310, 1643.149 1539.817, 1640.985 1587.500 C 1638.878 1633.909, 1638.043 1650.362, 1637.481 1656.500 C 1637.229 1659.250, 1636.772 1665.325, 1636.465 1670 C 1635.418 1685.947, 1632.818 1708.339, 1631.118 1716.041 C 1628.798 1726.555, 1627.745 1738.731, 1627.577 1757 C 1627.436 1772.224, 1627.004 1777.925, 1625.606 1783 C 1623.270 1791.483, 1613.631 1811.263, 1606.602 1822 C 1603.541 1826.675, 1601.028 1831.008, 1601.018 1831.629 C 1601.008 1832.249, 1602.436 1833.352, 1604.191 1834.079 C 1608.347 1835.800, 1613.435 1841.246, 1614.670 1845.295 C 1615.208 1847.058, 1615.751 1851.101, 1615.877 1854.280 C 1616.072 1859.214, 1615.568 1861.118, 1612.439 1867.280 C 1610.423 1871.251, 1607.498 1876.400, 1605.939 1878.723 C 1604.380 1881.046, 1603.520 1883.203, 1604.029 1883.518 C 1605.020 1884.130, 1612.841 1882.295, 1614.500 1881.061 C 1616.580 1879.513, 1624.602 1876.820, 1628.583 1876.332 C 1633.583 1875.720, 1641.520 1878.809, 1645.259 1882.823 C 1647.842 1885.595, 1652 1895.597, 1652 1899.038 C 1652 1901.126, 1654.432 1901.729, 1655.551 1899.917 C 1656.522 1898.347, 1664.580 1895.071, 1668.743 1894.555 C 1673.165 1894.006, 1682.153 1895.630, 1683.091 1897.147 C 1684.307 1899.115, 1685.685 1894.841, 1685.879 1888.500 C 1685.980 1885.200, 1686.264 1881.375, 1686.510 1880 C 1686.757 1878.625, 1687.413 1868.708, 1687.968 1857.963 C 1688.830 1841.281, 1689.413 1836.876, 1691.954 1827.827 C 1699.532 1800.839, 1715.172 1769.686, 1733.161 1745.747 C 1736.569 1741.211, 1741.865 1734.158, 1744.929 1730.074 C 1753.139 1719.131, 1766.392 1706.294, 1776.330 1699.660 C 1786.802 1692.669, 1786.884 1694.155, 1774.901 1673.832 C 1773.305 1671.126, 1772 1668.732, 1772 1668.513 C 1772 1667.563, 1758.459 1645.841, 1753.602 1639 C 1750.674 1634.875, 1744.897 1624.975, 1740.766 1617 C 1736.634 1609.025, 1732.023 1600.250, 1730.519 1597.500 C 1715.770 1570.536, 1711.927 1562.028, 1704.322 1539.500 C 1701.351 1530.700, 1698.263 1522.082, 1697.460 1520.349 C 1696.657 1518.616, 1696 1516.942, 1696 1516.629 C 1696 1516.315, 1694.917 1513.683, 1693.593 1510.780 C 1688.511 1499.634, 1683.018 1479.591, 1681.525 1466.750 C 1681.157 1463.588, 1680.471 1461, 1680 1461 C 1679.530 1461, 1677.569 1463.594, 1675.644 1466.764 M 1796.155 1722.462 C 1794.315 1723.762, 1792.154 1725.763, 1791.351 1726.909 C 1789.953 1728.906, 1790 1728.950, 1792.511 1727.996 C 1793.952 1727.448, 1796.901 1727, 1799.065 1727 C 1803.135 1727, 1803.958 1725.661, 1802.393 1721.582 C 1801.575 1719.450, 1800.128 1719.654, 1796.155 1722.462" stroke="none" fill="#fbfbf3" fill-rule="evenodd"/><path d="M -0 1050 L -0 2100.001 1050.250 2099.750 L 2100.500 2099.500 2100.750 1049.750 L 2101.001 0 1050.500 0 L 0 0 -0 1050 M 0.498 1050.500 C 0.498 1628, 0.611 1864.100, 0.750 1575.167 C 0.889 1286.234, 0.889 813.734, 0.750 525.167 C 0.611 236.600, 0.498 473, 0.498 1050.500 M 2082.500 81.048 C 2074.800 81.458, 2061.543 82.098, 2053.039 82.472 C 2044.535 82.846, 2032.385 84.068, 2026.039 85.188 C 2017.066 86.772, 2009.052 87.299, 1990 87.557 C 1965.429 87.890, 1960.066 88.205, 1948 90.021 C 1944.425 90.559, 1936.550 91.704, 1930.500 92.566 C 1913.069 95.050, 1883.194 101.504, 1847.500 110.497 C 1805.105 121.179, 1786.240 124.925, 1726.500 134.527 C 1717.700 135.942, 1708.925 137.494, 1707 137.976 C 1705.075 138.459, 1701.925 139.083, 1700 139.363 C 1673.801 143.176, 1611.367 165.444, 1570.500 185.552 C 1543.345 198.913, 1529.470 206.978, 1501.500 225.659 C 1471.440 245.735, 1470.553 246.336, 1470 246.973 C 1469.725 247.290, 1465.117 250.862, 1459.759 254.911 C 1449.920 262.347, 1447.353 264.687, 1448.154 265.488 C 1448.396 265.729, 1456.223 264.413, 1465.547 262.562 C 1474.871 260.711, 1485.425 258.928, 1489 258.599 C 1506.282 257.008, 1519.722 256.057, 1532.500 255.523 C 1540.200 255.201, 1548.750 254.732, 1551.500 254.481 C 1554.250 254.229, 1570.225 253.549, 1587 252.968 C 1614.774 252.006, 1634.974 250.840, 1674.500 247.918 C 1692.831 246.563, 1725.419 246.597, 1744.380 247.990 C 1772.205 250.036, 1792.276 250.741, 1823 250.752 C 1839.775 250.758, 1856.650 251.074, 1860.500 251.453 C 1901.315 255.478, 1937.320 265.016, 1986 284.698 C 2018.120 297.684, 2041.352 312.874, 2080.825 346.695 C 2088.896 353.611, 2096.512 360.187, 2097.750 361.309 L 2100 363.349 2100 221.674 C 2100 87.355, 2099.909 80.008, 2098.250 80.152 C 2097.287 80.236, 2090.200 80.639, 2082.500 81.048 M 998.750 319.735 C 996.138 319.941, 994 320.532, 994 321.047 C 994 321.563, 997.487 326.162, 1001.750 331.268 C 1015.325 347.527, 1016.880 349.633, 1022.534 359.427 C 1032.205 376.177, 1037.219 388.779, 1038.960 400.710 C 1040.316 409.997, 1041.954 442.250, 1041.413 449 C 1040.295 462.951, 1038.159 467.964, 1026.267 484.532 C 1012.450 503.785, 999.697 526.685, 991.479 547 C 979.276 577.169, 970.043 593.239, 962 598.305 C 958.791 600.327, 949.495 601.610, 948.596 600.156 C 948.233 599.568, 947.286 599.337, 946.493 599.641 C 944.746 600.311, 923.665 588.392, 916 582.401 C 912.975 580.037, 908.025 575.796, 905 572.977 C 896.297 564.867, 881.305 558.448, 862.500 554.781 C 859.200 554.137, 856.275 553.333, 856 552.994 C 854.769 551.475, 841.811 546.889, 835 545.562 C 814.879 541.641, 809.715 541.545, 670.500 542.515 C 607.067 542.957, 597.568 543.277, 581.374 545.516 C 575.805 546.286, 568.830 547.170, 565.874 547.479 C 549.461 549.199, 530.081 552.634, 528.550 554.094 C 528.027 554.592, 527.802 555.017, 528.050 555.038 C 538.563 555.920, 559.098 559.533, 576 563.473 C 586.175 565.846, 601.250 568.976, 609.500 570.430 C 629.396 573.937, 656.280 579.450, 667.810 582.388 C 674.430 584.075, 680.304 584.811, 688.141 584.936 C 694.202 585.032, 700.138 585.483, 701.331 585.938 C 704.388 587.103, 709.095 592.038, 708.330 593.275 C 707.978 593.844, 708.163 594.017, 708.741 593.660 C 709.318 593.303, 710.030 593.636, 710.323 594.399 C 710.916 595.945, 718.858 599.901, 726.500 602.457 C 747.823 609.590, 770.798 623.179, 782.287 635.454 C 795.386 649.449, 800.277 663.709, 796.882 678 C 796.294 680.475, 795.709 682.950, 795.583 683.500 C 795.457 684.050, 794.599 686.242, 793.677 688.372 C 792.755 690.502, 792 692.473, 792 692.753 C 792 694.091, 780.979 712.497, 775.386 720.500 C 765.332 734.885, 757.911 741.696, 746.407 747.096 C 742.608 748.880, 737.925 751.319, 736 752.517 C 734.075 753.715, 729.350 755.261, 725.500 755.953 C 712.978 758.204, 704.541 760.026, 702.500 760.920 C 701.400 761.402, 698.925 762.482, 697 763.321 C 695.075 764.160, 690.011 766.456, 685.746 768.423 C 681.481 770.390, 677.759 772, 677.475 772 C 677.190 772, 667.180 776.441, 655.229 781.868 C 630.916 792.910, 611.596 799.592, 592.959 803.404 C 569.039 808.297, 558.322 809, 507.614 809 C 462.794 809, 460.401 808.906, 453.608 806.888 C 449.699 805.726, 444.700 803.869, 442.500 802.761 C 434.526 798.747, 417.503 786.978, 398 771.995 C 387.396 763.849, 371.056 752, 370.428 752 C 369.190 752, 370.780 773.142, 372.522 779.858 C 377.303 798.290, 384.211 811.947, 398.504 831.219 C 406.933 842.585, 407.312 843.378, 407.288 849.563 C 407.267 854.883, 404.831 859.832, 399.339 865.716 C 393.014 872.493, 391.161 875.094, 383.820 887.500 C 376.979 899.062, 371.997 908.504, 367.460 918.500 C 365.963 921.800, 363.077 928.100, 361.046 932.500 C 356.269 942.855, 355.349 945.396, 354.064 951.799 C 352.710 958.545, 352.712 1007.010, 354.067 1013 C 355.786 1020.601, 363.100 1034.101, 369.966 1042.345 C 373.560 1046.659, 378.306 1053.184, 380.513 1056.845 C 386.055 1066.036, 387.229 1065.984, 394.201 1056.247 C 400.113 1047.989, 411.450 1034.984, 412.740 1034.980 C 413.158 1034.979, 413.506 1034.348, 413.513 1033.579 C 413.531 1031.721, 416.960 1028, 418.655 1028 C 419.395 1028, 420 1027.550, 420 1027 C 420 1026.450, 420.900 1026, 422 1026 C 423.100 1026, 424 1025.523, 424 1024.941 C 424 1024.359, 424.450 1024.160, 425 1024.500 C 425.550 1024.840, 426 1024.672, 426 1024.126 C 426 1023.581, 427.013 1022.826, 428.250 1022.449 C 429.488 1022.072, 431.214 1021.139, 432.086 1020.376 C 434.276 1018.459, 445.365 1013.147, 452 1010.837 C 462.472 1007.191, 466.554 1006.141, 478.500 1004.021 C 485.100 1002.850, 491.400 1001.627, 492.500 1001.303 C 493.600 1000.979, 537.025 1000.365, 589 999.937 C 700.600 999.020, 708.938 998.491, 718.360 991.725 C 720.064 990.501, 722.194 989.050, 723.092 988.500 C 737.836 979.476, 746.189 975.826, 759.942 972.403 C 769.547 970.012, 777.461 969.320, 778.371 970.791 C 778.640 971.226, 780.579 971.690, 782.680 971.822 C 790.051 972.285, 791.664 973.339, 796.347 980.757 C 799.535 985.807, 799.431 993.182, 796.105 997.852 C 790.748 1005.375, 749.924 1022.199, 731.221 1024.590 C 727.977 1025.005, 724.279 1026.367, 721.628 1028.123 C 712.906 1033.900, 691.991 1053.174, 673 1072.933 C 630.626 1117.024, 621.294 1124.222, 581.730 1143.332 C 573.534 1147.291, 569.057 1149.995, 569.230 1150.883 C 569.378 1151.644, 570.850 1152.995, 572.500 1153.885 C 574.150 1154.775, 577.075 1156.476, 579 1157.666 C 594.803 1167.429, 631.227 1181.626, 644 1183 C 648.125 1183.444, 685.025 1183.738, 726 1183.653 L 800.500 1183.499 810.500 1180.693 C 816 1179.149, 823.425 1176.848, 827 1175.581 C 836.294 1172.285, 866.162 1159.845, 874.972 1155.600 C 882.148 1152.143, 891 1150.647, 891 1152.892 C 891 1153.382, 892.237 1154.093, 893.750 1154.471 C 898.129 1155.565, 909.928 1168.616, 914.728 1177.675 C 923.616 1194.448, 928.649 1224.055, 930.422 1270 C 931.693 1302.896, 932.188 1314.757, 932.489 1319.500 C 932.664 1322.250, 933.138 1336.650, 933.543 1351.500 C 934.384 1382.351, 933.676 1392.342, 928.399 1424 C 924.803 1445.574, 922.983 1453.716, 913.124 1492.329 C 909.014 1508.426, 906.696 1519.783, 905.980 1527.329 C 903.821 1550.092, 896.663 1578.420, 887.493 1600.500 C 878.313 1622.603, 873.067 1631.870, 862.863 1644 C 855.284 1653.010, 839.556 1675.421, 831.984 1688 C 826.631 1696.892, 814.511 1715.137, 811.721 1718.500 C 811.265 1719.050, 808.104 1723.388, 804.696 1728.141 C 793.048 1744.385, 779.972 1759.850, 773.593 1764.926 C 766.273 1770.751, 752.142 1779.831, 743.750 1784.102 C 737.743 1787.160, 736.428 1788.999, 740.250 1789.001 C 743.170 1789.002, 754.823 1794.511, 757.847 1797.320 C 760.276 1799.575, 764.533 1807, 763.398 1807 C 763.044 1807, 763.315 1807.675, 764 1808.500 C 765.838 1810.714, 765.578 1826.260, 763.577 1833.831 C 762.656 1837.313, 760.804 1842.648, 759.459 1845.688 C 758.115 1848.728, 757.271 1851.629, 757.583 1852.134 C 757.908 1852.660, 762.934 1852.811, 769.325 1852.486 C 806.479 1850.603, 809.883 1851.063, 817.973 1859.068 C 822.146 1863.197, 822.882 1864.574, 823.955 1870.259 C 824.627 1873.824, 825.025 1880.062, 824.839 1884.121 L 824.500 1891.500 828.642 1891.244 C 834.963 1890.853, 839.529 1888.485, 846.547 1881.957 C 850.068 1878.680, 853.298 1875.989, 853.725 1875.976 C 854.151 1875.962, 856.826 1875.690, 859.669 1875.371 C 863.657 1874.924, 865.569 1875.215, 868.038 1876.646 C 871.875 1878.870, 877.949 1884.717, 877.200 1885.467 C 876.907 1885.760, 877.137 1886, 877.712 1886 C 878.861 1886, 881.429 1895.516, 882.503 1903.750 C 882.896 1906.760, 883.696 1909, 884.378 1909 C 885.786 1909, 893.078 1900.496, 900.670 1890 C 916.272 1868.430, 921.355 1861.165, 925.070 1855.129 C 935.180 1838.702, 946.675 1818.535, 952.077 1807.748 C 955.314 1801.285, 960.073 1792.285, 962.654 1787.748 C 966.776 1780.499, 971.943 1770.002, 978.775 1754.997 C 989.451 1731.547, 1001.812 1706.548, 1005.186 1701.582 C 1012.171 1691.303, 1020.394 1681.958, 1031.970 1671.146 C 1043.061 1660.787, 1054.518 1646.763, 1062.163 1634.189 C 1064.400 1630.510, 1069.270 1623.225, 1072.985 1618 C 1080.011 1608.118, 1089.449 1592.824, 1094.892 1582.500 C 1096.631 1579.200, 1099.212 1574.475, 1100.627 1572 C 1106.768 1561.256, 1122.933 1528.685, 1125.249 1522.386 C 1128.021 1514.848, 1135.742 1490.583, 1138.894 1479.500 C 1141.929 1468.831, 1143.731 1458.289, 1145.986 1438 C 1150.999 1392.896, 1152.397 1384.996, 1156.020 1381.291 C 1158.766 1378.482, 1166 1375.355, 1166 1376.977 C 1166 1377.412, 1167.420 1377.656, 1169.155 1377.519 C 1172.694 1377.241, 1177.984 1379.808, 1177.994 1381.809 C 1177.997 1382.529, 1178.398 1382.872, 1178.884 1382.572 C 1179.370 1382.271, 1180.324 1383.369, 1181.004 1385.010 C 1182.323 1388.195, 1182.108 1393.055, 1179.936 1409.083 L 1178.638 1418.665 1185.438 1437.583 C 1189.178 1447.987, 1194.037 1461, 1196.237 1466.500 C 1202.463 1482.069, 1204.021 1486.158, 1205.573 1491 C 1207.198 1496.074, 1209.705 1506.367, 1210.503 1511.252 C 1210.795 1513.039, 1211.244 1515.625, 1211.500 1517 C 1214.533 1533.289, 1216.539 1555.305, 1217.466 1582.500 C 1217.785 1591.850, 1218.268 1603.100, 1218.540 1607.500 C 1218.812 1611.900, 1219.476 1628.325, 1220.015 1644 C 1221.115 1675.959, 1221.851 1695.194, 1222.482 1708.500 C 1223.831 1736.934, 1224.500 1759.815, 1224.500 1777.500 L 1224.500 1797.500 1221.404 1804 C 1217.625 1811.934, 1203.640 1827.067, 1191.072 1836.824 C 1186.357 1840.484, 1181.627 1844.271, 1180.560 1845.240 C 1179.493 1846.209, 1177.134 1848.014, 1175.317 1849.251 C 1173.500 1850.488, 1172.011 1851.779, 1172.007 1852.119 C 1171.997 1853.016, 1178.633 1853.975, 1185 1853.997 C 1198.377 1854.042, 1210.632 1857.959, 1215.836 1863.854 C 1225.916 1875.274, 1224.433 1891.728, 1210.549 1922.500 C 1206.200 1932.138, 1201.580 1948.623, 1202.984 1949.490 C 1204.308 1950.309, 1214.245 1946.732, 1226.922 1940.873 C 1241.717 1934.036, 1250.330 1932.327, 1259.388 1934.433 C 1269.401 1936.760, 1275.466 1943.018, 1284.719 1960.566 C 1287.349 1965.553, 1290.513 1970.953, 1291.750 1972.566 C 1293.968 1975.458, 1294.023 1975.471, 1295.577 1973.500 C 1296.444 1972.400, 1300.718 1964.300, 1305.074 1955.500 C 1313.970 1937.533, 1318.289 1931.256, 1325.524 1925.784 C 1338.115 1916.262, 1351.509 1917.008, 1370.066 1928.265 C 1383.923 1936.672, 1401.814 1945.733, 1403.049 1944.970 C 1403.977 1944.396, 1404.094 1937.608, 1403.552 1915.861 C 1402.764 1884.270, 1402.888 1883.159, 1408.964 1867.500 C 1425.008 1826.147, 1437.759 1774.668, 1445.995 1718 C 1447.154 1710.025, 1448.723 1700.800, 1449.481 1697.500 C 1455.496 1671.318, 1463.660 1628.446, 1465.563 1613.043 C 1466.342 1606.742, 1467.642 1597.067, 1468.451 1591.543 C 1469.709 1582.965, 1471.291 1566.151, 1473.492 1538 C 1474.090 1530.344, 1475.652 1497.379, 1476.525 1474 C 1476.870 1464.754, 1476.624 1449.147, 1475.965 1438.500 C 1473.822 1403.856, 1473.799 1402.899, 1475.045 1399.892 C 1475.704 1398.301, 1476.553 1397, 1476.933 1397 C 1477.312 1397, 1478.495 1396.213, 1479.561 1395.250 C 1482.710 1392.407, 1488.280 1390.276, 1491.500 1390.683 C 1495.861 1391.233, 1497.208 1391.855, 1496.504 1392.993 C 1496.162 1393.547, 1496.606 1394, 1497.491 1394 C 1498.375 1394, 1500.539 1394.749, 1502.300 1395.663 C 1504.060 1396.578, 1510 1398.153, 1515.500 1399.162 C 1521 1400.171, 1526.850 1401.246, 1528.500 1401.552 C 1592.928 1413.487, 1601.095 1414.730, 1621 1415.633 C 1630.075 1416.044, 1638.400 1416.362, 1639.500 1416.339 C 1651.820 1416.082, 1677.627 1414.730, 1678.312 1414.307 C 1678.817 1413.995, 1678.873 1404.492, 1678.442 1392.131 C 1676.703 1342.193, 1677.598 1323.466, 1683.075 1295.166 C 1686.729 1276.288, 1696.118 1252.138, 1704.016 1241.302 C 1707.176 1236.968, 1719.616 1233.628, 1721.983 1236.479 C 1722.677 1237.316, 1723.817 1238, 1724.515 1238 C 1725.577 1238, 1726.606 1239.379, 1727.497 1242 C 1727.591 1242.275, 1728.169 1243.706, 1728.782 1245.179 C 1730.246 1248.699, 1729.629 1257.082, 1727.643 1260.660 C 1723.036 1268.959, 1717.022 1284.364, 1715.019 1293 C 1714.005 1297.367, 1711.228 1311.486, 1710.592 1315.500 C 1708.065 1331.461, 1707.488 1379.841, 1709.513 1406 C 1709.747 1409.025, 1710.188 1419.150, 1710.492 1428.500 C 1711.911 1472.079, 1713.344 1480.113, 1724.314 1506 C 1726.295 1510.675, 1730.433 1521.925, 1733.510 1531 C 1738.669 1546.217, 1749.136 1569.400, 1756.304 1581.487 C 1757.939 1584.244, 1762.628 1593.025, 1766.722 1601 C 1770.817 1608.975, 1776.025 1618.200, 1778.295 1621.500 C 1780.565 1624.800, 1784.080 1629.975, 1786.106 1633 C 1790.349 1639.335, 1803.333 1662.046, 1810.778 1676.156 C 1813.580 1681.466, 1819.213 1691.366, 1823.295 1698.156 C 1829.689 1708.790, 1837 1722.943, 1837 1724.686 C 1837 1724.986, 1842.109 1735.642, 1848.353 1748.366 C 1854.597 1761.090, 1860.647 1774.200, 1861.798 1777.500 C 1866.890 1792.107, 1869.968 1820.367, 1869.990 1852.712 C 1869.999 1864.802, 1869.679 1867.789, 1867.853 1872.712 C 1863.389 1884.744, 1852.131 1897.086, 1837.195 1906.326 C 1832.149 1909.446, 1827.784 1912, 1827.494 1912 C 1827.203 1912, 1823.711 1913.973, 1819.733 1916.385 C 1815.755 1918.797, 1809.688 1922.023, 1806.250 1923.554 C 1802.813 1925.085, 1800 1926.676, 1800 1927.088 C 1800 1928.031, 1807.703 1930.516, 1815.236 1932.003 C 1818.390 1932.626, 1827.857 1933.253, 1836.274 1933.396 C 1851.538 1933.656, 1851.593 1933.666, 1857.943 1937.050 C 1861.723 1939.065, 1865.408 1941.961, 1867.016 1944.181 C 1870.186 1948.557, 1872.255 1957.743, 1871.494 1964.065 C 1870.848 1969.435, 1867.566 1979.970, 1864.929 1985.139 C 1861.664 1991.539, 1862.028 1992, 1870.340 1992 C 1878.862 1992, 1890.036 1989.373, 1899.865 1985.059 C 1905.677 1982.508, 1907.773 1982.082, 1912.979 1982.389 C 1917.298 1982.643, 1920.046 1983.397, 1922.047 1984.877 C 1923.627 1986.045, 1925.397 1987, 1925.981 1987 C 1926.565 1987, 1927.555 1988.125, 1928.182 1989.500 C 1928.808 1990.875, 1929.638 1992, 1930.025 1992 C 1931.232 1992, 1933.847 2000.233, 1934.556 2006.263 C 1934.929 2009.433, 1935.534 2012.212, 1935.900 2012.438 C 1936.266 2012.665, 1939.774 2008.046, 1943.694 2002.175 C 1953.845 1986.973, 1959.748 1980.742, 1967.712 1976.821 C 1972.937 1974.249, 1975.519 1973.578, 1979.919 1973.651 C 1990.820 1973.830, 1997.888 1978.934, 2014.955 1998.948 C 2020.608 2005.576, 2025.696 2011, 2026.261 2011 C 2026.948 2011, 2027.075 2006.262, 2026.644 1996.750 C 2026.289 1988.912, 2025.747 1974.400, 2025.440 1964.500 C 2025.132 1954.600, 2024.710 1944.025, 2024.502 1941 C 2024.293 1937.975, 2023.803 1923.327, 2023.414 1908.450 C 2022.493 1873.304, 2022.248 1874.404, 2035.731 1853 C 2045.184 1837.993, 2055.327 1810.357, 2069.471 1761.065 C 2071.296 1754.704, 2073.787 1744.325, 2075.005 1738 C 2078.164 1721.597, 2083.402 1704.078, 2088.607 1692.500 C 2090.633 1687.994, 2096.772 1667.217, 2098.489 1659.052 C 2099.822 1652.714, 2100 1605.149, 2100 1254.403 C 2100 937.310, 2099.747 856.856, 2098.750 856.537 C 2098.063 856.317, 2089.802 854.078, 2080.393 851.561 C 2057.562 845.455, 2052.988 843.892, 2036.049 836.415 C 2018.722 828.767, 2014.649 826.338, 1992 810.154 C 1975.401 798.293, 1968.357 792.787, 1957.955 783.540 C 1952.879 779.027, 1951.285 777.676, 1938.481 767.038 C 1933.541 762.933, 1927.250 757.474, 1924.500 754.906 C 1921.750 752.338, 1917.250 748.327, 1914.500 745.993 C 1911.750 743.658, 1908.796 741.017, 1907.935 740.124 C 1907.074 739.231, 1902.605 735.125, 1898.005 731 C 1877.306 712.441, 1870.787 706.171, 1856.629 691.206 C 1842.002 675.746, 1817.685 656.198, 1805.403 650.027 C 1799.843 647.232, 1789.236 641.623, 1775 633.948 C 1773.075 632.910, 1762.050 627.561, 1750.500 622.061 C 1738.950 616.561, 1727.250 610.876, 1724.500 609.427 C 1691.048 591.807, 1678.817 586.764, 1656 581.182 C 1632.393 575.408, 1628.788 575.104, 1599 576.376 C 1507.370 580.288, 1502.783 580.572, 1484.199 583.480 C 1463.293 586.752, 1451.481 589.902, 1416.038 601.657 C 1400.962 606.658, 1392.507 608.982, 1390.500 608.678 C 1386.127 608.016, 1383.369 607.266, 1381.315 606.182 C 1375.739 603.241, 1370.304 602.178, 1365.781 603.142 C 1363.242 603.684, 1360.934 604.729, 1360.652 605.465 C 1360.370 606.200, 1360.642 613.979, 1361.258 622.749 C 1362.231 636.622, 1362.156 640.050, 1360.677 649.098 C 1359.743 654.819, 1358.098 662.398, 1357.023 665.939 C 1355.542 670.820, 1355.344 672.709, 1356.206 673.748 C 1356.831 674.501, 1363.228 678.980, 1370.421 683.702 C 1377.615 688.423, 1386.598 694.347, 1390.385 696.867 C 1403.354 705.495, 1417.513 720.916, 1427.729 737.539 C 1437.528 753.484, 1447.964 776.093, 1450.098 786 C 1453.779 803.095, 1455.857 835.429, 1454.038 847.322 C 1451.995 860.678, 1446.634 872.944, 1437.620 884.890 C 1433.661 890.136, 1420.907 901.115, 1416.269 903.268 C 1412.260 905.129, 1412.293 904.556, 1413.484 952.190 C 1414.311 985.266, 1413.876 989.375, 1408.432 1000 C 1398.806 1018.787, 1378.097 1036.233, 1348.500 1050.492 C 1322.621 1062.960, 1314.040 1064.920, 1277.500 1066.714 C 1245.073 1068.307, 1237.781 1067.259, 1219 1058.310 C 1206.774 1052.484, 1192.139 1046.917, 1175 1041.573 C 1169.225 1039.773, 1162.025 1037.279, 1159 1036.031 C 1153.748 1033.866, 1152.689 1033.792, 1135.500 1034.393 C 1125.600 1034.739, 1116.375 1035.205, 1115 1035.429 C 1113.625 1035.652, 1106.425 1036.112, 1099 1036.452 C 1091.575 1036.791, 1082.350 1037.274, 1078.500 1037.524 C 1074.650 1037.775, 1062.950 1038.431, 1052.500 1038.982 C 1009.007 1041.275, 1008.724 1041.311, 1001.500 1045.567 C 996.562 1048.476, 989.177 1055.333, 985.957 1060 C 977.896 1071.680, 947.556 1106.060, 925.365 1128.660 C 912.897 1141.357, 908.855 1144.892, 906.499 1145.160 C 903.117 1145.543, 895 1143.229, 895 1141.881 C 895 1141.397, 894.365 1141, 893.589 1141 C 891.198 1141, 888.027 1133.044, 888.478 1128.180 C 888.938 1123.227, 893.260 1117.826, 910.587 1100.555 C 922.141 1089.038, 944.145 1064.054, 958.195 1046.500 C 963.478 1039.900, 969.983 1032.447, 972.650 1029.937 C 978.231 1024.686, 984.437 1020, 985.811 1020 C 986.330 1020, 987.285 1019.362, 987.932 1018.581 C 989.563 1016.617, 1002.447 1012.210, 1008.500 1011.546 C 1014.826 1010.852, 1023.415 1010.258, 1038 1009.504 C 1044.325 1009.177, 1051.525 1008.724, 1054 1008.498 C 1056.475 1008.271, 1064.575 1007.816, 1072 1007.486 C 1079.425 1007.156, 1087.300 1006.716, 1089.500 1006.509 C 1091.700 1006.303, 1100.700 1005.831, 1109.500 1005.460 C 1118.300 1005.090, 1125.781 1004.618, 1126.125 1004.411 C 1127.196 1003.769, 1156.337 1003.836, 1159.436 1004.489 C 1161.051 1004.828, 1166.451 1006.597, 1171.436 1008.420 C 1176.421 1010.242, 1186.995 1013.857, 1194.934 1016.453 C 1202.873 1019.049, 1213.223 1022.885, 1217.934 1024.977 C 1222.645 1027.069, 1230.201 1030.432, 1234.726 1032.449 C 1247.027 1037.934, 1251.721 1038.193, 1290.500 1035.520 C 1309.142 1034.236, 1317.925 1031.885, 1335.500 1023.478 C 1345.168 1018.853, 1353.727 1013.463, 1364.033 1005.509 C 1373.071 998.534, 1377.544 993.503, 1381.165 986.237 L 1384.287 979.975 1383.608 964.737 C 1383.234 956.357, 1382.725 943.425, 1382.475 936 C 1381.884 918.364, 1381.252 914.158, 1378.654 910.540 C 1377.469 908.890, 1375.994 905.874, 1375.376 903.838 C 1374.220 900.032, 1374.602 895, 1376.047 895 C 1376.495 895, 1377.005 893.990, 1377.180 892.756 C 1377.392 891.269, 1379.253 889.497, 1382.694 887.506 C 1385.551 885.853, 1391.800 882.252, 1396.583 879.504 C 1407.669 873.134, 1413.158 868.272, 1417.360 861.104 C 1424.288 849.282, 1425.599 840.756, 1423.911 818.500 C 1422.136 795.104, 1420.061 787.840, 1409.157 766.853 C 1402.201 753.462, 1402.339 753.686, 1394.312 742.910 C 1390.359 737.603, 1384.734 731.255, 1381.812 728.802 C 1375.989 723.915, 1374.853 723.127, 1351.404 707.702 C 1342.551 701.879, 1333.829 695.430, 1332.022 693.373 C 1324.103 684.353, 1323.174 675.827, 1328.080 657.196 C 1330.648 647.442, 1331.164 643.591, 1331.185 634 C 1331.252 604.319, 1328.228 594.971, 1312.100 575 C 1302.399 562.988, 1287.052 551.025, 1271 542.964 C 1263.251 539.072, 1247.290 533.523, 1241 532.534 C 1231.439 531.030, 1220.337 527.768, 1216.714 525.399 C 1204.720 517.558, 1202.991 513.413, 1201.096 487.957 C 1199.754 469.939, 1196.493 459.248, 1186.313 439.500 C 1171.971 411.678, 1164.734 402.518, 1134.939 374.467 C 1119.372 359.811, 1099.936 347.312, 1082 340.422 C 1077.875 338.837, 1074.350 337.194, 1074.167 336.770 C 1073.983 336.347, 1073.338 336, 1072.732 336 C 1072.127 336, 1069.802 335.145, 1067.566 334.099 C 1055.941 328.664, 1042.157 323.231, 1038.268 322.552 C 1019.541 319.282, 1011.637 318.719, 998.750 319.735 M 2016 787.915 C 2016 789.758, 2025.034 797.241, 2027.738 797.638 C 2029.766 797.935, 2029.295 797.399, 2023.750 793.094 C 2020.862 790.852, 2017.938 788.546, 2017.250 787.970 C 2016.458 787.305, 2016 787.286, 2016 787.915 M 786.589 808.055 C 782.144 809.170, 776.796 812.213, 772.716 815.950 C 761.109 826.582, 765.430 848.590, 781.010 858.186 C 784.974 860.627, 793.916 862.152, 799.993 861.421 C 811.556 860.032, 819.582 854.349, 823.113 845.051 C 828.581 830.654, 823.144 817.215, 808.914 809.956 C 804.086 807.493, 792.697 806.523, 786.589 808.055 M 368.672 846.114 C 368.469 846.876, 367.824 848.962, 367.238 850.750 C 366.017 854.480, 367.591 855.279, 370.193 852.250 C 372.869 849.134, 372.986 848.297, 370.997 846.498 C 369.439 845.088, 368.967 845.010, 368.672 846.114 M 659.750 1031.716 C 658.223 1031.948, 657 1032.770, 657 1033.566 C 657 1034.355, 657.563 1034.888, 658.250 1034.750 C 658.948 1034.610, 659.370 1035.272, 659.206 1036.250 C 658.720 1039.145, 662.311 1038.314, 666.583 1034.542 L 670.500 1031.083 666.500 1031.191 C 664.300 1031.251, 661.263 1031.487, 659.750 1031.716 M 147.987 1041.328 C 149.064 1044.533, 152.092 1051.226, 154.715 1056.200 C 158.768 1063.888, 161.094 1066.788, 170.228 1075.540 C 177.078 1082.104, 186.866 1089.914, 197.236 1097.090 C 206.181 1103.280, 216.471 1110.708, 220.102 1113.596 C 229.626 1121.171, 240.417 1128.019, 252.861 1134.385 C 270.422 1143.367, 287.363 1147.210, 306.044 1146.449 C 318.471 1145.942, 335 1141.981, 335 1139.510 C 335 1138.432, 334.246 1138.371, 331.250 1139.206 C 328.149 1140.070, 314.775 1140.599, 306.500 1140.186 C 305.400 1140.131, 300.675 1140.037, 296 1139.978 C 291.325 1139.918, 285.700 1139.431, 283.500 1138.895 C 281.300 1138.360, 278.150 1137.669, 276.500 1137.362 C 274.850 1137.054, 272.712 1136.381, 271.750 1135.866 C 270.788 1135.351, 270 1135.226, 270 1135.587 C 270 1135.949, 269.396 1135.744, 268.658 1135.131 C 267.920 1134.519, 267.053 1134.280, 266.732 1134.602 C 266.041 1135.292, 250.242 1128.672, 244.500 1125.287 C 242.300 1123.989, 238.950 1122.227, 237.056 1121.370 C 232.595 1119.351, 215 1107.835, 215 1106.934 C 215 1106.554, 213.650 1105.683, 212 1105 C 210.350 1104.317, 209 1103.362, 209 1102.879 C 209 1102.395, 208.551 1102, 208.002 1102 C 206.748 1102, 196.928 1095.174, 195.250 1093.136 C 194.563 1092.301, 193.993 1092.041, 193.985 1092.559 C 193.976 1093.091, 193.650 1093.063, 193.235 1092.494 C 192.831 1091.941, 190.700 1090.167, 188.500 1088.552 C 181.704 1083.562, 164.795 1065.745, 166.093 1064.942 C 166.865 1064.465, 166.538 1063.988, 165.134 1063.543 C 163.963 1063.171, 162.725 1061.751, 162.382 1060.387 C 162.040 1059.023, 161.533 1058.134, 161.255 1058.412 C 160.977 1058.689, 159.794 1057.174, 158.625 1055.045 C 153.565 1045.825, 150.352 1040.579, 148.264 1038.126 L 146.029 1035.500 147.987 1041.328 M 1675.644 1466.764 C 1670.220 1475.693, 1650.917 1517.384, 1646.829 1529 C 1643.200 1539.310, 1643.149 1539.817, 1640.985 1587.500 C 1638.878 1633.909, 1638.043 1650.362, 1637.481 1656.500 C 1637.229 1659.250, 1636.772 1665.325, 1636.465 1670 C 1635.418 1685.947, 1632.818 1708.339, 1631.118 1716.041 C 1628.798 1726.555, 1627.745 1738.731, 1627.577 1757 C 1627.436 1772.224, 1627.004 1777.925, 1625.606 1783 C 1623.270 1791.483, 1613.631 1811.263, 1606.602 1822 C 1603.541 1826.675, 1601.028 1831.008, 1601.018 1831.629 C 1601.008 1832.249, 1602.436 1833.352, 1604.191 1834.079 C 1608.347 1835.800, 1613.435 1841.246, 1614.670 1845.295 C 1615.208 1847.058, 1615.751 1851.101, 1615.877 1854.280 C 1616.072 1859.214, 1615.568 1861.118, 1612.439 1867.280 C 1610.423 1871.251, 1607.498 1876.400, 1605.939 1878.723 C 1604.380 1881.046, 1603.520 1883.203, 1604.029 1883.518 C 1605.020 1884.130, 1612.841 1882.295, 1614.500 1881.061 C 1616.580 1879.513, 1624.602 1876.820, 1628.583 1876.332 C 1633.583 1875.720, 1641.520 1878.809, 1645.259 1882.823 C 1647.842 1885.595, 1652 1895.597, 1652 1899.038 C 1652 1901.126, 1654.432 1901.729, 1655.551 1899.917 C 1656.522 1898.347, 1664.580 1895.071, 1668.743 1894.555 C 1673.165 1894.006, 1682.153 1895.630, 1683.091 1897.147 C 1684.307 1899.115, 1685.685 1894.841, 1685.879 1888.500 C 1685.980 1885.200, 1686.264 1881.375, 1686.510 1880 C 1686.757 1878.625, 1687.413 1868.708, 1687.968 1857.963 C 1688.830 1841.281, 1689.413 1836.876, 1691.954 1827.827 C 1699.532 1800.839, 1715.172 1769.686, 1733.161 1745.747 C 1736.569 1741.211, 1741.865 1734.158, 1744.929 1730.074 C 1753.139 1719.131, 1766.392 1706.294, 1776.330 1699.660 C 1786.802 1692.669, 1786.884 1694.155, 1774.901 1673.832 C 1773.305 1671.126, 1772 1668.732, 1772 1668.513 C 1772 1667.563, 1758.459 1645.841, 1753.602 1639 C 1750.674 1634.875, 1744.897 1624.975, 1740.766 1617 C 1736.634 1609.025, 1732.023 1600.250, 1730.519 1597.500 C 1715.770 1570.536, 1711.927 1562.028, 1704.322 1539.500 C 1701.351 1530.700, 1698.263 1522.082, 1697.460 1520.349 C 1696.657 1518.616, 1696 1516.942, 1696 1516.629 C 1696 1516.315, 1694.917 1513.683, 1693.593 1510.780 C 1688.511 1499.634, 1683.018 1479.591, 1681.525 1466.750 C 1681.157 1463.588, 1680.471 1461, 1680 1461 C 1679.530 1461, 1677.569 1463.594, 1675.644 1466.764 M 1796.155 1722.462 C 1794.315 1723.762, 1792.154 1725.763, 1791.351 1726.909 C 1789.953 1728.906, 1790 1728.950, 1792.511 1727.996 C 1793.952 1727.448, 1796.901 1727, 1799.065 1727 C 1803.135 1727, 1803.958 1725.661, 1802.393 1721.582 C 1801.575 1719.450, 1800.128 1719.654, 1796.155 1722.462" stroke="none" fill="#f4be44" fill-rule="evenodd"/></svg>
